<svg id="OUTLINES" xmlns="http://www.w3.org/2000/svg" viewBox="0 0 326 54.2"><style>.st0{fill:#808284}.st1{fill:#ee3124}</style><title>Artboard 1</title><path class="st0" d="M121.4 13.8h.5v13.9h-.5V13.8z"/><path class="st1" d="M105.4 27.7h3.8V13.9h-3.8v13.8zm-5 0h3.8V13.9h-3.8v13.8zM86.2 17.6l-1.5 5.7-1.7-5.7h-3.5l-1.6 5.7-1.8-5.7h-5.5l-2 4.8-1.8-4.8h-4.3l4 10.4c0 .1 0 .3-.1.4-.2.6-.5 1.1-.9 1.5-.2.3-.6.4-1 .4.1-.1.3-.3.3-.5.1-.4.1-.9-.1-1.3-.4-.6-1.1-.9-1.8-.6-.9.2-1.4 1-1.3 1.9.1.8.6 1.5 2 1.8 1.1.2 2.2-.1 2.9-.9.6-.7 1.1-1.5 1.3-2.4L72.2 18l3 9.8h3.4l1.6-5.9 1.9 5.8h3.3L88 17.6h-1.8zM95 21c0-.4-.1-.9-.2-1.3-.1-.3-.3-.6-.5-.9-.4-.3-1-.4-1.4-.1-.4.3-.7.8-.7 1.3-.2.6-.2 1.2-.2 1.8h3V21m3.5-1c.5 1 .7 2.2.6 3.3H92v2c0 .2.1.4.2.6.2.2.7 1.1 2.7.8 2.2-.3 2.1-1.9 2.2-1.9h1.7c0 .6-.3 1.2-.7 1.7-.9.8-2.1 1.3-3.3 1.5-1.8.3-3.6-.1-5-1.1-.8-.6-1.3-1.5-1.6-2.4-.4-1.5-.3-3 .3-4.4 1.1-1.9 3.2-2.9 5.3-2.8 2.4.1 3.8.9 4.7 2.7m-39.8 1c0-.4-.1-.9-.2-1.3-.1-.3-.3-.6-.5-.9-.4-.3-1-.4-1.4-.1-.4.3-.7.8-.8 1.4-.1.6-.1 1.2-.1 1.9h3v-1m3.6-1c.5 1 .7 2.2.6 3.3h-7.2v2c0 .2.1.4.3.6.2.2.7 1.1 2.7.8 2.2-.3 2.1-1.9 2.2-1.9h1.7c0 .6-.3 1.2-.7 1.7-1 .8-2.1 1.3-3.4 1.4-1.8.3-3.6-.1-5-1.1-.8-.6-1.3-1.5-1.6-2.4-.4-1.5-.3-3 .3-4.4 1.1-1.9 3.2-2.9 5.3-2.8 2.4.2 3.9 1.1 4.8 2.8m-13.7-2.4c-1.2-.5-2.5-.4-3.6.1-.5.3-1 .7-1.4 1.2v-1.4h-4v10.1h4v-7.3c.2-.4.6-.8 1-1 .5-.3 1-.2 1.4.1.2.3.3.7.3 1.1v7h3.9V20c0-1.1-.6-2-1.6-2.4m-14.5 3.7c0-.6-.1-1.1-.2-1.6-.2-.5-.6-1.1-1.2-1.1h-.2c-.3.1-.6.4-.9 1-.2.8-.3 1.7-.2 2.6v1.1c0 1.8.1 2.4.5 3 .2.3.5.5.8.6.3 0 .5-.1.7-.2.5-.6.8-1.3.8-2l-.1-3.4m3.7-1.4c.8 1.5.9 3.3.3 4.8-.4 1.2-1.3 2.2-2.4 2.7-.9.4-2 .6-3 .6-1.3.1-2.5-.3-3.6-1-.9-.7-1.6-1.7-1.9-2.8-.5-1.6-.2-3.4.8-4.9.8-1.1 2.1-1.9 3.5-2.1.4-.1.7-.1 1.1-.1.8 0 1.7.1 2.5.4 1.1.5 2.1 1.3 2.7 2.4m-16.3-6h4.3v13.8h-4.3v-6.3h-3.4v6.3h-4.3V13.9h4.3v5.8h3.4v-5.8z"/><path class="st0" d="M134.2 26.3V15.2h4.2c3.2 0 4.8 1.6 4.8 5.5s-1.6 5.6-4.8 5.6h-4.2zm4.1-1.2c2.1 0 3.4-1 3.4-4.4s-1.2-4.3-3.3-4.3h-2.8v8.7h2.7zm6.5-2.6c0-2.6 1.3-4 3.7-4s3.3 1.6 3.3 3.7v.7h-5.6c.1 1.9.9 2.5 2.3 2.5 1 .1 1.9-.4 2.3-1.4l1 .5c-.6 1.3-1.9 2-3.3 1.9-2.3.1-3.7-1.2-3.7-3.9zm1.4-.7h4.3c-.1-1.7-.8-2.3-2-2.3s-2.2.6-2.3 2.3zm11.9 2.5c0-.7-.4-1-1.5-1.2l-.8-.2c-1.8-.4-2.4-1.2-2.4-2.2 0-1.3.9-2.3 2.9-2.3 1.1-.1 2.1.4 2.8 1.2l-.9.8c-.4-.7-1.2-1-2-1-1 0-1.6.4-1.6 1s.3 1 1.4 1.2l.9.2c1.9.4 2.5 1.2 2.5 2.3s-.8 2.3-3.1 2.3c-1.3.2-2.6-.4-3.3-1.5l1-.7c.5.8 1.4 1.3 2.3 1.2 1.3.1 1.8-.4 1.8-1.1zm3.7-9c.4-.1.9.2.9.7v.2c0 .5-.4.9-.9.9s-.9-.4-.9-.9.3-.9.7-.9h.2zm.7 3.3v7.7h-1.4v-7.7h1.4zm9.1 7.5c0 2.6-1.6 3.6-3.9 3.6-1.4.2-2.7-.6-3.3-1.8l1-.7c.4.9 1.3 1.5 2.3 1.4 1.2.2 2.3-.6 2.5-1.8v-1.9c-.5 1-1.6 1.6-2.7 1.5-2.1 0-3.3-1.4-3.3-4s1.2-3.9 3.3-3.9c1.1-.1 2.2.5 2.7 1.4l.1-1.2h1.2l.1 7.4zm-3.7-6.6c-1.5 0-2.2.9-2.2 2.8s.7 2.9 2.2 2.9 2.4-.8 2.4-2.9-1-2.8-2.4-2.8zm7.2-.9l.1 1.5c.6-1.1 1.8-1.8 3-1.7 1.9 0 2.9 1.1 2.9 3.1v4.8h-1.4v-4.5c0-1.6-.7-2.2-1.9-2.2-1.5 0-2.5 1-2.5 2.9v3.9h-1.4v-7.7l1.2-.1zm19.8 6.5v1.2H187V15.2h1.4v9.9h6.5zm4 1.4c-1.6 0-2.7-.8-2.7-2.3s.9-2.6 3.4-2.6h2c0-1.6-.7-2.1-2.1-2.1-.9-.1-1.7.3-2.2 1l-.8-.8c.7-.9 1.9-1.4 3.1-1.3 2 0 3.3.8 3.3 3.2v4.7h-1.2l-.1-1.4c-.4 1-1.5 1.7-2.7 1.6zm2.7-3.8h-2c-1.5 0-2.1.5-2.1 1.5 0 .8.5 1.3 1.6 1.3 1.5-.1 2.5-1.1 2.5-2.8zm4.8-4.1l.1 1.5c.6-1.1 1.8-1.8 3-1.7 1.9 0 2.9 1.1 2.9 3.1v4.8H211v-4.5c0-1.6-.7-2.2-1.9-2.2-1.5 0-2.5 1-2.5 2.9v3.8h-1.4v-7.7h1.2zm15 7.5c0 2.6-1.6 3.6-3.9 3.6-1.4.2-2.7-.6-3.3-1.8l1-.7c.4.9 1.3 1.5 2.3 1.4 1.2.2 2.3-.7 2.5-1.9v-2c-.5 1-1.6 1.6-2.7 1.5-2.1 0-3.3-1.4-3.3-4s1.2-3.9 3.3-3.9c1.1-.1 2.2.5 2.7 1.5l.1-1.2h1.2l.1 7.5zm-3.8-6.6c-1.5 0-2.2.9-2.2 2.8s.7 2.9 2.2 2.9 2.4-.8 2.4-2.9-1-2.8-2.4-2.8zm11.8 5.5c-.6 1-1.7 1.6-2.8 1.5-2 0-3-1.2-3-3.2v-4.7h1.4v4.5c0 1.5.6 2.3 1.9 2.3 1.5 0 2.4-1 2.4-2.9v-3.9h1.4v7.7h-1.2l-.1-1.3zm5.7 1.5c-1.6 0-2.7-.8-2.7-2.3s.9-2.6 3.4-2.6h2c0-1.6-.7-2.1-2.1-2.1-.9-.1-1.7.3-2.2 1l-.8-.8c.7-.9 1.9-1.4 3.1-1.3 2 0 3.3.8 3.3 3.2v4.7H238l-.1-1.4c-.5 1-1.6 1.7-2.8 1.6zm2.7-3.8h-2c-1.5 0-2.1.5-2.1 1.5 0 .8.5 1.3 1.6 1.3 1.5-.1 2.5-1.1 2.5-2.8zm10.4 3.4c0 2.6-1.6 3.6-3.9 3.6-1.4.2-2.7-.6-3.3-1.8l1-.7c.4.9 1.3 1.5 2.3 1.4 1.2.2 2.3-.6 2.5-1.8v-1.9c-.5 1-1.6 1.6-2.7 1.5-2.1 0-3.3-1.4-3.3-4s1.2-3.9 3.3-3.9c1.1-.1 2.2.5 2.7 1.4l.1-1.2h1.2l.1 7.4zm-3.7-6.6c-1.5 0-2.2.9-2.2 2.8s.7 2.9 2.2 2.9 2.4-.8 2.4-2.9-1.1-2.8-2.4-2.8zm5.6 3c0-2.6 1.3-4.1 3.7-4.1 2.4 0 3.3 1.5 3.3 3.7v.7h-5.6c.1 1.9.9 2.5 2.3 2.5 1 .1 1.9-.4 2.3-1.4l1 .5c-.6 1.3-1.9 2-3.3 1.9-2.4.2-3.7-1.1-3.7-3.8zm1.3-.6h4.3c-.1-1.7-.8-2.3-2-2.3s-2.1.5-2.3 2.3zm17-4.1c-.5-1.1-1.6-1.7-2.8-1.6-1.9 0-2.5.8-2.5 1.9 0 .8.5 1.5 2 1.9l1.1.2c2.5.5 3.5 1.5 3.5 3.2 0 2.1-1.5 3.2-4.1 3.2-1.7.2-3.4-.7-4.3-2.1l1.1-.7c.6 1.2 1.9 1.8 3.2 1.8 1.9 0 2.8-.7 2.8-2s-.5-1.6-2.4-2l-1.1-.2c-2.1-.5-3.1-1.5-3.1-3.1 0-1.8 1.3-3.1 3.8-3.1 1.6-.2 3.1.6 3.9 2l-1.1.6zm5 8.7l-3.2-7.9h1.4L274 25l2.5-6.4h1.4l-3.7 9.2c-.4 1.2-1.5 2-2.7 1.9-.4 0-.8-.1-1.2-.2l.2-1.1c.3.1.7.2 1 .2.8 0 1.4-.5 1.6-1.2l.3-.9zm10.1-2.1c0-.7-.4-1-1.5-1.2l-.8-.2c-1.8-.4-2.4-1.2-2.4-2.2 0-1.3.9-2.3 2.9-2.3 1.1-.1 2.1.4 2.8 1.2l-.9.8c-.4-.7-1.2-1-2-1-1 0-1.6.4-1.6 1s.3 1 1.4 1.2l.9.2c1.9.4 2.5 1.2 2.5 2.3s-.8 2.3-3.1 2.3c-1.3.1-2.6-.5-3.3-1.6l1-.7c.5.8 1.4 1.3 2.3 1.2 1.2.1 1.7-.4 1.8-1zm3.6-5.7v-2.3h1.3v2.3h2.2v1.1h-2.3v4c0 1.4.5 1.6 1.3 1.6.3 0 .6-.1.9-.2l.2 1.1c-.4.2-.9.2-1.3.2-1.5 0-2.5-.8-2.5-2.8v-4h-1.4v-1.1l1.6.1zm4.5 3.8c0-2.6 1.3-4 3.7-4s3.3 1.6 3.3 3.7v.7h-5.7c.1 1.9.9 2.5 2.3 2.5 1 .1 1.9-.4 2.3-1.4l1 .5c-.6 1.3-1.9 2-3.3 1.9-2.3.1-3.6-1.2-3.6-3.9zm1.4-.6h4.3c-.1-1.7-.8-2.3-2-2.3s-2.2.5-2.3 2.3zm7.4-3.2h1.2l.1 1.4c.5-1 1.5-1.7 2.7-1.6 1.2-.1 2.2.7 2.4 1.9.5-1.2 1.7-1.9 2.9-1.9 1.8 0 2.6 1 2.6 3v4.9h-1.4v-4.5c0-1.6-.6-2.2-1.6-2.2-1.3 0-2.2.9-2.3 2.7v4h-1.4v-4.5c0-1.6-.6-2.3-1.7-2.3-1.3 0-2.1.9-2.2 2.8v4h-1.4l.1-7.7z"/></svg>